{"title":"Formula 1 2014-Malaysia Practice Session 3.720p.H264.AC3.TBK","uid":9847482,"size":2777732987,"categoryP":"video","categoryS":"hd___tv_shows","magnet":"?xt=urn:btih:e3c49fa177d3a90542dc3665a7996f96678244d3&amp;dn=Formula+1+2014-Malaysia+Practice+Session+3.720p.H264.AC3.TBK&amp;tr=udp%3A%2F%2Ftracker.openbittorrent.com%3A80&amp;tr=udp%3A%2F%2Fopen.demonii.com%3A1337&amp;tr=udp%3A%2F%2Ftracker.coppersurfer.tk%3A6969&amp;tr=udp%3A%2F%2Fexodus.desync.com%3A6969","seeders":1,"leechers":0,"uploader":"tbkf1","files":3,"time":1396102382,"description":"Race 2: Kuala Lumpur, Malaysia\n\nPRACTICE SESSION 3\n\nFull Coverage of the 3rd Practice Session from the Sepang Circuit, Kuala Lumpur, Broadcast Live via SKY SPORTS F1 HD\n\nMAIN FILE DETAILS:\n\nAir Date: 29.03.14\nCircuit: Sepang, Kuala Lumpur\nResolution: 1280x720\nAudio: AC3 5.1 Dolby Digital \nVideo: H.264 Profile 4.0 High\nContainer: MKV\nRunning Time: 1:24.28\nBroadcast Time: 03:45-04:30\nSource: Encoded From VU+ Solo2 PVR\nBroadcast: Sky Sports F1 HD (UK)\nFile Size: 2.58GB\n\n\nI will be providing the entire F1 Season from Sky Sports F1 HD.. Please visit my blog below for full details of everything you need for the forthcoming F1 2014 Season including links to all torrents and fileshare downloads.\n\nFormula 1 Blog: See .txt File\n\nwith encoding the audio feed as pure 6 channel AC3 Digital.\n\nAll my torrents for F1 2014 are wrapped into MKV format. Resolution is scaled to 720p with 6 channel AC3 Dolby Digital Audio. These video files will play very fluidly with the standard media players such as VLC, WMP, KM Player, WMC, MP-HC.\n\n\nScreenshots are also provided for visual confirmation &amp; quality, I do try to check carefully not to show any spoilers!\n\n\nI welcome any comments or suggestions...\n\n\nFOR ALL YOUR LATEST F1 NEWS, GOSSIP, TRACK GUIDES, DISCUSSION &amp; FULL TORRENT &amp; FILESHARE LINKS INFORMATION IN MORE DETAIL, AND ACCESS TO MUCH \n\nMORE, PLEASE KEEP YOUR EYE ON MY BLOG \n\n\n**For anyone having mkv playback issues on Windows 7 or 8, I do recommend installing the Shark Codec Packs which are available free on the \n\nlink below: &lt;a href=&quot;\nhttp://shark007.net/&quot; rel=&quot;nofollow&quot; target=&quot;_NEW&quot;&gt;\nhttp://shark007.net/&lt;/a&gt; (*NOTE: sharks default settings work well for WMP)\n\nEXTENDED FILE DETAILS:\n\nFormat                                   : AVC\nFormat/Info                              : Advanced Video Codec\nFormat profile                           : &lt;a class=&quot;__cf_email__&quot; href=&quot;/cdn-cgi/l/email-protection&quot; data-cfemail=&quot;5c14353b341c1068726c&quot;&gt;[email&amp;#160;protected]&lt;/a&gt;&lt;script cf-hash='f9e31' type=&quot;text/javascript&quot;&gt;\n/* &lt;![CDATA[ */!function(){try{var t=&quot;currentScript&quot;in document?document.currentScript:function(){for(var t=document.getElementsByTagName(&quot;script&quot;),e=t.length;e--;)if(t[e].getAttribute(&quot;cf-hash&quot;))return t[e]}();if(t&amp;&amp;t.previousSibling){var e,r,n,i,c=t.previousSibling,a=c.getAttribute(&quot;data-cfemail&quot;);if(a){for(e=&quot;&quot;,r=parseInt(a.substr(0,2),16),n=2;a.length-n;n+=2)i=parseInt(a.substr(n,2),16)^r,e+=String.fromCharCode(i);e=document.createTextNode(e),c.parentNode.replaceChild(e,c)}}}catch(u){}}();/* ]]&gt; */&lt;/script&gt;\nFormat settings, CABAC                   : Yes\nFormat settings, ReFrames                : 5 frames\nCodec ID                                 : V_MPEG4/ISO/AVC\nDuration                                 : 1h 24mn\nBit rate                                 : 3 896 Kbps\nWidth                                    : 1 280 pixels\nHeight                                   : 720 pixels\nDisplay aspect ratio                     : 16:9\nOriginal display aspect ratio            : 16:9\nFrame rate mode                          : Constant\nFrame rate                               : 25.000 fps\nColor space                              : YUV\nChroma subsampling                       : 4:2:0\nBit depth                                : 8 bits\nScan type                                : Progressive\nBits/(Pixel*Frame)                       : 0.169\nStream size                              : 2.31 GiB (89%)\nLanguage                                 : English\nDefault                                  : Yes\nForced                                   : No\nColor primaries                          : BT.709\nTransfer characteristics                 : BT.709\nMatrix coefficients                      : BT.709\n\nAudio\nID                                       : 2\nFormat                                   : AC-3\nFormat/Info                              : Audio Coding 3\nMode extension                           : CM (complete main)\nFormat settings, Endianness              : Big\nCodec ID                                 : A_AC3\nDuration                                 : 1h 24mn\nBit rate mode                            : Constant\nBit rate                                 : 384 Kbps\nChannel(s)                               : 6 channels\nChannel positions                        : Front: L C R, Side: L R, LFE\nSampling rate                            : 48.0 KHz\nBit depth                                : 16 bits\nCompression mode                         : Lossy\nStream size                              : 233 MiB (9%)\nLanguage                                 : English\nDefault                                  : Yes\nForced                                   : No","torrent":{"xt":"urn:btih:e3c49fa177d3a90542dc3665a7996f96678244d3","amp;dn":"Formula+1+2014-Malaysia+Practice+Session+3.720p.H264.AC3.TBK","amp;tr":["udp%3A%2F%2Ftracker.openbittorrent.com%3A80","udp%3A%2F%2Fopen.demonii.com%3A1337","udp%3A%2F%2Ftracker.coppersurfer.tk%3A6969","udp%3A%2F%2Fexodus.desync.com%3A6969"],"infoHash":"e3c49fa177d3a90542dc3665a7996f96678244d3","infoHashBuffer":{"type":"Buffer","data":[227,196,159,161,119,211,169,5,66,220,54,101,167,153,111,150,103,130,68,211]},"announce":[],"urlList":[]}}